<?xml version="1.0" encoding="UTF-8" standalone="no" ?>
<!DOCTYPE svg PUBLIC "-//W3C//DTD SVG 1.1//EN" "http://www.w3.org/Graphics/SVG/1.1/DTD/svg11.dtd">
<svg xmlns="http://www.w3.org/2000/svg" xmlns:xlink="http://www.w3.org/1999/xlink" version="1.1" width="1080" height="1080" viewBox="0 0 1080 1080" xml:space="preserve">
<desc>Created with Fabric.js 5.2.4</desc>
<defs>
</defs>
<rect x="0" y="0" width="100%" height="100%" fill="transparent"></rect>
<g transform="matrix(1 0 0 1 540 540)" id="3274ee69-66e0-4764-9561-2b0149436017"  >
<rect style="stroke: none; stroke-width: 1; stroke-dasharray: none; stroke-linecap: butt; stroke-dashoffset: 0; stroke-linejoin: miter; stroke-miterlimit: 4; fill: rgb(255,255,255); fill-rule: nonzero; opacity: 1; visibility: hidden;" vector-effect="non-scaling-stroke"  x="-540" y="-540" rx="0" ry="0" width="1080" height="1080" />
</g>
<g transform="matrix(1 0 0 1 540 540)" id="f9b2d9fd-a2dc-41f8-bc93-64fd44903046"  >
</g>
<g transform="matrix(1 0 0 1 540 540)"  >
<g style="" vector-effect="non-scaling-stroke"   >
		<g transform="matrix(0.13 0 0 -0.13 -157.63 0.07)"  >
<path style="stroke: none; stroke-width: 1; stroke-dasharray: none; stroke-linecap: butt; stroke-dashoffset: 0; stroke-linejoin: miter; stroke-miterlimit: 4; fill: rgb(36,130,119); fill-rule: nonzero; opacity: 1;" vector-effect="non-scaling-stroke"  transform=" translate(-835.67, -853.54)" d="M 145 1690 C 85 1686 29 1682 23 1681 C 13 1680 10 1512 11 873 C 12 428 15 54 19 40 L 26 15 L 395 12 C 805 8 955 18 1090 57 C 1284 112 1451 243 1553 420 C 1590 484 1637 632 1649 723 C 1685 986 1637 1209 1499 1411 C 1401 1556 1248 1633 978 1675 C 860 1693 328 1703 145 1690 z M 800 1370 C 908 1349 972 1285 1013 1155 C 1033 1093 1035 1064 1035 895 C 1034 687 1023 616 973 514 C 941 447 876 385 824 371 C 768 355 625 357 612 373 C 605 381 597 548 590 832 L 579 1279 L 601 1322 C 613 1346 628 1368 634 1372 C 650 1383 739 1382 800 1370 z" stroke-linecap="round" />
</g>
		<g transform="matrix(0.13 0 0 -0.13 121.95 0)"  >
<path style="stroke: none; stroke-width: 1; stroke-dasharray: none; stroke-linecap: butt; stroke-dashoffset: 0; stroke-linejoin: miter; stroke-miterlimit: 4; fill: rgb(36,130,119); fill-rule: nonzero; opacity: 1;" vector-effect="non-scaling-stroke"  transform=" translate(-2932.52, -854.04)" d="M 1848 1695 C 1843 1690 1840 1312 1840 853 L 1840 20 L 2105 20 L 2370 20 L 2370 408 C 2370 621 2373 839 2377 893 C 2383 984 2384 990 2405 990 C 2425 990 2430 975 2469 803 C 2492 699 2520 579 2531 535 C 2541 491 2572 359 2599 241 C 2627 124 2652 25 2655 21 C 2665 12 3100 8 3145 17 L 3184 26 L 3251 325 C 3288 490 3333 688 3352 765 C 3384 899 3386 905 3412 908 L 3439 911 L 3442 488 C 3444 185 3449 57 3457 37 L 3470 10 L 3742 12 L 4015 15 L 4023 135 C 4030 243 4018 1007 4001 1495 L 3995 1685 L 3920 1690 C 3879 1693 3679 1693 3475 1690 L 3105 1685 L 3096 1635 C 3091 1608 3053 1407 3011 1190 C 2940 822 2933 795 2913 792 C 2899 790 2890 795 2886 807 C 2878 833 2733 1577 2725 1631 L 2718 1677 L 2642 1684 C 2511 1694 1855 1703 1848 1695 z" stroke-linecap="round" />
</g>
</g>
</g>
<g transform="matrix(NaN NaN NaN NaN 0 0)"  >
<g style=""   >
</g>
</g>
<g transform="matrix(NaN NaN NaN NaN 0 0)"  >
<g style=""   >
</g>
</g>
</svg>